<?xml version="1.0" encoding="utf-8"?>
<!-- Generator: Adobe Illustrator 26.0.1, SVG Export Plug-In . SVG Version: 6.00 Build 0)  -->
<svg version="1.1" id="Layer_1" xmlns="http://www.w3.org/2000/svg" xmlns:xlink="http://www.w3.org/1999/xlink" x="0px" y="0px"
	 viewBox="0 0 1080 462" style="enable-background:new 0 0 1080 462;" xml:space="preserve">
<style type="text/css">
	.st0{fill:#080E18;}
	.st1{fill:#1B8AF3;}
	.st2{fill:#FFFFFF;}
	.st3{fill:#323232;}
</style>
<g>
	<g>
		<g>
			<g>
				<path class="st2" d="M241.04,244.24h-20.53l1.75,85.87h20.56L241.04,244.24z M239.03,147.98c-0.19-10.73-2.92-16.09-8.17-16.09
					h-21.14c-4.95,0-7.92,4.6-8.89,13.79L188,245.36c-0.49,4.79-0.95,9.53-1.38,14.22c-0.44,4.7-0.9,9.44-1.39,14.23h-1.9
					c-0.49-4.79-0.92-9.53-1.31-14.23c-0.39-4.69-0.87-9.33-1.46-13.92l-12.98-99.98c-1.07-9.19-3.99-13.79-8.75-13.79h-20.85
					c-5.25,0-8.02,5.36-8.32,16.09l-3.65,182.13h20.56l3.07-164.61h2.48l16.33,123.81c0.98,9.19,3.94,13.79,8.9,13.79h14
					c4.96,0,7.87-4.6,8.75-13.79l16.19-123.81h2.62l1.15,56.64h20.52L239.03,147.98z"/>
			</g>
			<g>
				<path class="st2" d="M264.65,244.24l7.92,33.29h52.21l-0.27-33.29H264.65z M317.05,143.38c-0.48-3.64-1.43-6.46-2.84-8.47
					c-1.41-2.02-3.04-3.02-4.89-3.02h-21.14c-1.84,0-3.47,1-4.88,3.02c-1.41,2.01-2.36,4.83-2.85,8.47l-12.3,78.76h21.1l5.35-37.97
					c0.49-3.06,0.89-6.27,1.24-9.62c0.33-3.34,0.65-6.56,0.94-9.62h3.94c0.29,3.07,0.64,6.28,1.02,9.62
					c0.39,3.35,0.77,6.57,1.17,9.62l8.54,60.62l4.61,32.75l7.4,52.58h22.75L317.05,143.38z M251.28,330.11h22.75l7.4-52.58
					l4.62-32.75l0.07-0.54h-21.44L251.28,330.11z"/>
			</g>
		</g>
		<g>
			<g>
				<path class="st2" d="M349.29,387.1H122.94c-23.67,0-42.93-19.26-42.93-42.93V117.83c0-23.67,19.26-42.93,42.93-42.93h226.34
					c23.67,0,42.93,19.26,42.93,42.93v226.34C392.21,367.84,372.96,387.1,349.29,387.1z M122.94,93.32
					c-13.51,0-24.51,10.99-24.51,24.51v226.34c0,13.51,10.99,24.51,24.51,24.51h226.34c13.51,0,24.51-10.99,24.51-24.51V117.83
					c0-13.51-10.99-24.51-24.51-24.51H122.94z"/>
			</g>
		</g>
	</g>
	<g>
		<path class="st2" d="M452.49,105.5l11.92-0.03l38.13,56.86l37.89-57.02l11.92-0.03l0.22,104.34l-11.78,0.03l-0.18-84.52
			l-37.89,55.98l-0.6,0l-38.13-55.67l0.18,84.37l-11.48,0.02L452.49,105.5z"/>
		<path class="st2" d="M572.95,180.37l-0.1-47.85l11.48-0.02l0.1,45.02c0.03,14.31,7.8,23.24,21.37,23.21
			c13.12-0.03,23.08-9.74,23.05-24.2l-0.09-44.12l11.33-0.02l0.16,77.07l-11.33,0.02l-0.03-13.42c-5.2,8.36-13.08,15.08-26.35,15.11
			C583.9,211.2,572.99,198.7,572.95,180.37z"/>
		<path class="st2" d="M653.64,199.57l5.8-8.21c8.36,6.24,17.61,9.8,26.7,9.78c9.24-0.02,15.94-4.8,15.92-12.26l0-0.3
			c-0.02-7.75-9.12-10.71-19.26-13.52c-12.08-3.4-25.51-7.55-25.54-21.71l0-0.3c-0.03-13.27,10.98-22.08,26.19-22.12
			c9.39-0.02,19.83,3.24,27.74,8.44l-5.2,8.66c-7.17-4.61-15.37-7.42-22.82-7.4c-9.09,0.02-14.9,4.8-14.88,11.21l0,0.3
			c0.02,7.3,9.56,10.12,19.85,13.22c11.93,3.55,24.76,8.15,24.79,22.01l0,0.3c0.03,14.61-12.02,23.13-27.38,23.16
			C674.53,210.86,662.3,206.56,653.64,199.57z"/>
		<path class="st2" d="M728.41,102.67l13.12-0.03l0.03,12.67l-13.12,0.03L728.41,102.67z M729.22,132.19l11.48-0.02l0.16,77.07
			l-11.48,0.02L729.22,132.19z"/>
		<path class="st2" d="M756.73,171.03l0-0.3c-0.05-21.76,16.91-40.28,39.42-40.33c14.61-0.03,23.71,6.06,30.89,13.65l-7.58,8.07
			c-6.13-6.4-12.99-11.6-23.43-11.58c-15.65,0.03-27.55,13.33-27.51,29.87l0,0.3c0.04,16.7,12.29,29.94,28.39,29.9
			c9.84-0.02,17.43-4.96,23.53-11.53l7.32,6.84c-7.73,8.66-16.96,14.94-31.42,14.97C773.81,210.95,756.78,192.65,756.73,171.03z"/>
		<path class="st2" d="M834.88,186.67l0-0.3c-0.03-16.25,13.36-24.92,32.89-24.96c9.84-0.02,16.85,1.31,23.71,3.23l-0.01-2.68
			c-0.03-13.86-8.54-21-23-20.97c-9.09,0.02-16.24,2.42-23.39,5.71l-3.45-9.38c8.49-3.89,16.83-6.45,28.01-6.47
			c10.88-0.02,19.23,2.79,24.91,8.44c5.23,5.21,7.93,12.65,7.95,22.49l0.1,47.1l-11.03,0.02l-0.02-11.63
			c-5.35,7.02-14.28,13.3-27.85,13.33C849.39,210.64,834.91,202.47,834.88,186.67z M891.66,180.58l-0.02-7.45
			c-5.67-1.63-13.27-3.25-22.66-3.23c-14.46,0.03-22.5,6.31-22.47,16l0,0.3c0.02,9.69,8.98,15.33,19.41,15.31
			C880.07,201.48,891.68,192.81,891.66,180.58z"/>
		<path class="st2" d="M921.9,100.02l11.48-0.02l0.23,108.82l-11.48,0.02L921.9,100.02z"/>
		<path class="st2" d="M528.45,353.96l-9.59-23.38l-44.12,0.09l-9.49,23.42l-23.4,0.05l44.5-105.19l21.17-0.05l44.94,105
			L528.45,353.96z M496.68,276.51l-13.79,33.87l27.73-0.06L496.68,276.51z"/>
		<path class="st2" d="M563.63,353.89l-0.22-104.35l22.96-0.05l0.22,104.35L563.63,353.89z"/>
		<path class="st2" d="M698.77,321.99c-2.67,6.37-6.46,11.89-11.37,16.57c-4.91,4.68-10.77,8.37-17.57,11.07
			c-6.8,2.7-14.28,4.06-22.43,4.07l-40.7,0.09l-0.22-104.35l40.7-0.09c8.15-0.02,15.63,1.28,22.44,3.9
			c6.81,2.62,12.68,6.26,17.61,10.92c4.93,4.66,8.74,10.14,11.44,16.45c2.7,6.31,4.05,13.14,4.07,20.49l0,0.3
			C702.77,308.77,701.44,315.63,698.77,321.99z M678.75,301.46c-0.01-4.57-0.79-8.79-2.34-12.67c-1.55-3.87-3.69-7.2-6.43-9.97
			c-2.74-2.78-6.05-4.93-9.93-6.46c-3.88-1.53-8.15-2.29-12.82-2.28l-17.74,0.04l0.13,62.91l17.74-0.04
			c4.67-0.01,8.94-0.76,12.81-2.26c3.87-1.5,7.17-3.64,9.9-6.43c2.73-2.79,4.86-6.07,6.39-9.85c1.53-3.78,2.29-8,2.28-12.68
			L678.75,301.46z"/>
		<path class="st2" d="M717.32,353.56l-0.22-104.35l78.56-0.17l0.04,20.42l-55.9,0.12l0.04,21.17l49.19-0.1l0.04,20.42l-49.19,0.1
			l0.05,21.91l56.65-0.12l0.04,20.42L717.32,353.56z"/>
		<path class="st2" d="M888.9,353.19l-9.59-23.38l-44.12,0.09l-9.49,23.42l-23.4,0.05l44.5-105.19l21.17-0.05l44.94,105
			L888.9,353.19z M857.13,275.74l-13.79,33.87l27.73-0.06L857.13,275.74z"/>
		<path class="st2" d="M995.62,335.9c-1.87,4.03-4.48,7.41-7.83,10.15c-3.35,2.74-7.35,4.84-12.01,6.29
			c-4.65,1.45-9.81,2.18-15.48,2.19c-7.95,0.02-15.76-1.33-23.41-4.05c-7.66-2.72-14.62-6.9-20.9-12.55l13.53-16.28
			c4.78,3.87,9.68,6.94,14.7,9.21c5.02,2.28,10.52,3.41,16.48,3.39c4.77-0.01,8.47-0.89,11.1-2.63c2.63-1.74,3.94-4.16,3.94-7.24
			l0-0.3c0-1.49-0.28-2.81-0.83-3.95c-0.55-1.14-1.6-2.21-3.15-3.2c-1.55-0.99-3.69-1.98-6.43-2.97c-2.74-0.99-6.31-2.02-10.69-3.11
			c-5.29-1.28-10.07-2.71-14.36-4.29c-4.29-1.58-7.93-3.54-10.92-5.86c-3-2.33-5.32-5.23-6.97-8.71c-1.65-3.47-2.48-7.8-2.49-12.96
			l0-0.3c-0.01-4.77,0.87-9.07,2.64-12.9c1.77-3.83,4.25-7.14,7.46-9.93c3.2-2.79,7.03-4.93,11.48-6.43
			c4.45-1.5,9.36-2.26,14.73-2.27c7.65-0.02,14.69,1.11,21.1,3.38c6.41,2.27,12.31,5.54,17.69,9.8l-11.89,17.32
			c-4.68-3.17-9.25-5.67-13.73-7.5c-4.48-1.83-8.95-2.74-13.42-2.73c-4.47,0.01-7.82,0.89-10.06,2.63
			c-2.23,1.74-3.35,3.91-3.34,6.49l0,0.3c0,1.69,0.33,3.16,0.98,4.4c0.65,1.24,1.82,2.36,3.52,3.35c1.7,0.99,4.01,1.93,6.96,2.82
			s6.65,1.92,11.14,3.11c5.28,1.38,9.99,2.94,14.13,4.67c4.14,1.73,7.63,3.81,10.48,6.24c2.84,2.43,4.99,5.28,6.45,8.56
			c1.45,3.28,2.18,7.2,2.19,11.77l0,0.3C998.41,327.27,997.48,331.87,995.62,335.9z"/>
	</g>
</g>
</svg>
