<?xml version="1.0" encoding="utf-8"?>
<!-- Generator: Adobe Illustrator 26.0.1, SVG Export Plug-In . SVG Version: 6.00 Build 0)  -->
<svg version="1.1" id="Layer_1" xmlns="http://www.w3.org/2000/svg" xmlns:xlink="http://www.w3.org/1999/xlink" x="0px" y="0px"
	 viewBox="0 0 476 462" style="enable-background:new 0 0 476 462;" xml:space="preserve">
<style type="text/css">
	.st0{fill:#080E18;}
	.st1{fill:#1B8AF3;}
	.st2{fill:#FFFFFF;}
	.st3{fill:#323232;}
</style>
<rect x="-8" y="-11" class="st0" width="496" height="484"/>
<g>
	<g>
		<g>
			<path class="st2" d="M242.93,244.24H222.4l1.75,85.87h20.56L242.93,244.24z M240.92,147.98c-0.19-10.73-2.92-16.09-8.17-16.09
				h-21.14c-4.95,0-7.92,4.6-8.89,13.79l-12.84,99.68c-0.49,4.79-0.95,9.53-1.38,14.22c-0.44,4.7-0.9,9.44-1.39,14.23h-1.9
				c-0.49-4.79-0.92-9.53-1.31-14.23c-0.39-4.69-0.87-9.33-1.46-13.92l-12.98-99.98c-1.07-9.19-3.99-13.79-8.75-13.79h-20.85
				c-5.25,0-8.02,5.36-8.32,16.09l-3.65,182.13h20.56l3.07-164.61h2.48l16.33,123.81c0.98,9.19,3.94,13.79,8.9,13.79h14
				c4.96,0,7.87-4.6,8.75-13.79l16.19-123.81h2.62l1.15,56.64h20.52L240.92,147.98z"/>
			<path class="st2" d="M266.54,244.24l7.92,33.29h52.21l-0.27-33.29H266.54z M318.93,143.38c-0.48-3.64-1.43-6.46-2.84-8.47
				c-1.41-2.02-3.04-3.02-4.89-3.02h-21.14c-1.84,0-3.47,1-4.88,3.02c-1.41,2.01-2.36,4.83-2.85,8.47l-12.3,78.76h21.1l5.35-37.97
				c0.49-3.06,0.89-6.27,1.24-9.62c0.33-3.34,0.65-6.56,0.94-9.62h3.94c0.29,3.07,0.64,6.28,1.02,9.62
				c0.39,3.35,0.77,6.57,1.17,9.62l8.54,60.62l4.61,32.75l7.4,52.58h22.75L318.93,143.38z M253.17,330.11h22.75l7.4-52.58
				l4.62-32.75l0.07-0.54h-21.44L253.17,330.11z"/>
		</g>
		<g>
			<path class="st2" d="M351.17,387.1H124.83c-23.67,0-42.93-19.26-42.93-42.93V117.83c0-23.67,19.26-42.93,42.93-42.93h226.34
				c23.67,0,42.93,19.26,42.93,42.93v226.34C394.1,367.84,374.84,387.1,351.17,387.1z M124.83,93.32
				c-13.51,0-24.51,10.99-24.51,24.51v226.34c0,13.51,10.99,24.51,24.51,24.51h226.34c13.51,0,24.51-10.99,24.51-24.51V117.83
				c0-13.51-10.99-24.51-24.51-24.51H124.83z"/>
		</g>
	</g>
</g>
</svg>
